<mxfile host="Electron" modified="2024-01-18T16:38:04.783Z" agent="Mozilla/5.0 (X11; Linux x86_64) AppleWebKit/537.36 (KHTML, like Gecko) draw.io/22.1.16 Chrome/120.0.6099.109 Electron/28.1.0 Safari/537.36" etag="8unbgSwktxCg7xCrnqus" version="22.1.16" type="device">
  <diagram name="PÃ¡gina-1" id="O7MBfEGZBoNdr1yW5oVu">
    <mxGraphModel dx="1434" dy="907" grid="1" gridSize="10" guides="1" tooltips="1" connect="1" arrows="1" fold="1" page="1" pageScale="1" pageWidth="827" pageHeight="1169" math="0" shadow="0">
      <root>
        <mxCell id="0" />
        <mxCell id="1" parent="0" />
        <mxCell id="24-RcjtqaWTgur0IXHR3-46" style="edgeStyle=orthogonalEdgeStyle;shape=connector;curved=0;rounded=1;orthogonalLoop=1;jettySize=auto;html=1;labelBackgroundColor=default;strokeColor=#666666;strokeWidth=3;align=center;verticalAlign=middle;fontFamily=Helvetica;fontSize=12;fontColor=#666666;endArrow=openThin;endFill=0;fillColor=#FAE5C7;" parent="1" source="24-RcjtqaWTgur0IXHR3-42" target="24-RcjtqaWTgur0IXHR3-45" edge="1">
          <mxGeometry relative="1" as="geometry" />
        </mxCell>
        <mxCell id="24-RcjtqaWTgur0IXHR3-42" value="Deserialize AdditionOrder" style="rounded=1;whiteSpace=wrap;html=1;strokeColor=#666666;fontColor=#666666;fillColor=#FFFFFF;strokeWidth=3;" parent="1" vertex="1">
          <mxGeometry x="238.57" y="600" width="120" height="39" as="geometry" />
        </mxCell>
        <mxCell id="24-RcjtqaWTgur0IXHR3-44" style="edgeStyle=orthogonalEdgeStyle;shape=connector;curved=0;rounded=1;orthogonalLoop=1;jettySize=auto;html=1;labelBackgroundColor=default;strokeColor=#666666;strokeWidth=3;align=center;verticalAlign=middle;fontFamily=Helvetica;fontSize=12;fontColor=#666666;endArrow=openThin;endFill=0;fillColor=#FAE5C7;" parent="1" source="24-RcjtqaWTgur0IXHR3-43" target="24-RcjtqaWTgur0IXHR3-42" edge="1">
          <mxGeometry relative="1" as="geometry" />
        </mxCell>
        <mxCell id="24-RcjtqaWTgur0IXHR3-43" value="Start" style="ellipse;whiteSpace=wrap;html=1;aspect=fixed;strokeColor=#666666;fontColor=#666666;fillColor=#FFFFFF;strokeWidth=3;" parent="1" vertex="1">
          <mxGeometry x="153.57" y="594.5" width="50" height="50" as="geometry" />
        </mxCell>
        <mxCell id="24-RcjtqaWTgur0IXHR3-48" style="edgeStyle=orthogonalEdgeStyle;shape=connector;curved=0;rounded=1;orthogonalLoop=1;jettySize=auto;html=1;labelBackgroundColor=default;strokeColor=#666666;strokeWidth=3;align=center;verticalAlign=middle;fontFamily=Helvetica;fontSize=12;fontColor=#666666;endArrow=openThin;endFill=0;fillColor=#FAE5C7;" parent="1" source="24-RcjtqaWTgur0IXHR3-45" target="24-RcjtqaWTgur0IXHR3-47" edge="1">
          <mxGeometry relative="1" as="geometry" />
        </mxCell>
        <mxCell id="24-RcjtqaWTgur0IXHR3-45" value="Build ContainerCreationOptions &lt;br&gt;(Use image, env_vars and args)" style="rounded=1;whiteSpace=wrap;html=1;strokeColor=#666666;fontColor=#666666;fillColor=#FFFFFF;strokeWidth=3;" parent="1" vertex="1">
          <mxGeometry x="217.85" y="681" width="161.43" height="70" as="geometry" />
        </mxCell>
        <mxCell id="24-RcjtqaWTgur0IXHR3-53" style="edgeStyle=orthogonalEdgeStyle;shape=connector;curved=0;rounded=1;orthogonalLoop=1;jettySize=auto;html=1;exitX=0.5;exitY=1;exitDx=0;exitDy=0;labelBackgroundColor=default;strokeColor=#666666;strokeWidth=3;align=center;verticalAlign=middle;fontFamily=Helvetica;fontSize=12;fontColor=#666666;endArrow=openThin;endFill=0;fillColor=#FAE5C7;" parent="1" source="24-RcjtqaWTgur0IXHR3-47" target="24-RcjtqaWTgur0IXHR3-50" edge="1">
          <mxGeometry relative="1" as="geometry" />
        </mxCell>
        <mxCell id="24-RcjtqaWTgur0IXHR3-58" style="edgeStyle=orthogonalEdgeStyle;shape=connector;curved=0;rounded=1;orthogonalLoop=1;jettySize=auto;html=1;labelBackgroundColor=default;strokeColor=#666666;strokeWidth=3;align=center;verticalAlign=middle;fontFamily=Helvetica;fontSize=12;fontColor=#666666;endArrow=openThin;endFill=0;fillColor=#FAE5C7;" parent="1" source="24-RcjtqaWTgur0IXHR3-47" target="24-RcjtqaWTgur0IXHR3-57" edge="1">
          <mxGeometry relative="1" as="geometry" />
        </mxCell>
        <mxCell id="24-RcjtqaWTgur0IXHR3-47" value="Creation &lt;br&gt;successful?" style="rhombus;whiteSpace=wrap;html=1;rounded=0;strokeColor=#666666;strokeWidth=3;align=center;verticalAlign=middle;fontFamily=Helvetica;fontSize=11;fontColor=#666666;fillColor=#FFFFFF;spacingTop=-1;" parent="1" vertex="1">
          <mxGeometry x="402.73" y="689" width="107.27" height="54" as="geometry" />
        </mxCell>
        <mxCell id="24-RcjtqaWTgur0IXHR3-56" value="" style="edgeStyle=orthogonalEdgeStyle;shape=connector;curved=0;rounded=1;orthogonalLoop=1;jettySize=auto;html=1;labelBackgroundColor=default;strokeColor=#666666;strokeWidth=3;align=center;verticalAlign=middle;fontFamily=Helvetica;fontSize=12;fontColor=#666666;endArrow=openThin;endFill=0;fillColor=#FAE5C7;" parent="1" source="24-RcjtqaWTgur0IXHR3-50" target="24-RcjtqaWTgur0IXHR3-54" edge="1">
          <mxGeometry relative="1" as="geometry" />
        </mxCell>
        <mxCell id="24-RcjtqaWTgur0IXHR3-50" value="Return &lt;br&gt;400 Bad Request&amp;nbsp;" style="rounded=1;whiteSpace=wrap;html=1;strokeColor=#666666;fontColor=#666666;fillColor=#FFFFFF;strokeWidth=3;" parent="1" vertex="1">
          <mxGeometry x="406" y="785" width="100.72" height="40" as="geometry" />
        </mxCell>
        <mxCell id="24-RcjtqaWTgur0IXHR3-54" value="End" style="ellipse;whiteSpace=wrap;html=1;aspect=fixed;strokeColor=#666666;fontColor=#666666;fillColor=#FFFFFF;strokeWidth=3;" parent="1" vertex="1">
          <mxGeometry x="584.63" y="780" width="50" height="50" as="geometry" />
        </mxCell>
        <mxCell id="24-RcjtqaWTgur0IXHR3-60" style="edgeStyle=orthogonalEdgeStyle;shape=connector;curved=0;rounded=1;orthogonalLoop=1;jettySize=auto;html=1;labelBackgroundColor=default;strokeColor=#666666;strokeWidth=3;align=center;verticalAlign=middle;fontFamily=Helvetica;fontSize=12;fontColor=#666666;endArrow=openThin;endFill=0;fillColor=#FAE5C7;" parent="1" source="24-RcjtqaWTgur0IXHR3-57" target="24-RcjtqaWTgur0IXHR3-59" edge="1">
          <mxGeometry relative="1" as="geometry" />
        </mxCell>
        <mxCell id="24-RcjtqaWTgur0IXHR3-57" value="Build&amp;nbsp;&lt;br&gt;ContainerConnectionOpts&lt;br&gt;(use network name)" style="rounded=1;whiteSpace=wrap;html=1;strokeColor=#666666;fontColor=#666666;fillColor=#FFFFFF;strokeWidth=3;" parent="1" vertex="1">
          <mxGeometry x="384.55" y="595" width="143.63" height="49" as="geometry" />
        </mxCell>
        <mxCell id="24-RcjtqaWTgur0IXHR3-62" value="" style="edgeStyle=orthogonalEdgeStyle;shape=connector;curved=0;rounded=1;orthogonalLoop=1;jettySize=auto;html=1;labelBackgroundColor=default;strokeColor=#666666;strokeWidth=3;align=center;verticalAlign=middle;fontFamily=Helvetica;fontSize=12;fontColor=#666666;endArrow=openThin;endFill=0;fillColor=#FAE5C7;" parent="1" source="24-RcjtqaWTgur0IXHR3-59" target="24-RcjtqaWTgur0IXHR3-61" edge="1">
          <mxGeometry relative="1" as="geometry" />
        </mxCell>
        <mxCell id="24-RcjtqaWTgur0IXHR3-65" style="edgeStyle=orthogonalEdgeStyle;shape=connector;curved=0;rounded=1;orthogonalLoop=1;jettySize=auto;html=1;exitX=0.5;exitY=1;exitDx=0;exitDy=0;entryX=0.5;entryY=0;entryDx=0;entryDy=0;labelBackgroundColor=default;strokeColor=#666666;strokeWidth=3;align=center;verticalAlign=middle;fontFamily=Helvetica;fontSize=12;fontColor=#666666;endArrow=openThin;endFill=0;fillColor=#FAE5C7;" parent="1" source="24-RcjtqaWTgur0IXHR3-59" target="24-RcjtqaWTgur0IXHR3-64" edge="1">
          <mxGeometry relative="1" as="geometry" />
        </mxCell>
        <mxCell id="24-RcjtqaWTgur0IXHR3-59" value="Connection&lt;br&gt;successful?" style="rhombus;whiteSpace=wrap;html=1;rounded=0;strokeColor=#666666;strokeWidth=3;align=center;verticalAlign=middle;fontFamily=Helvetica;fontSize=11;fontColor=#666666;fillColor=#FFFFFF;spacingTop=-1;" parent="1" vertex="1">
          <mxGeometry x="556" y="595" width="107.27" height="50.5" as="geometry" />
        </mxCell>
        <mxCell id="24-RcjtqaWTgur0IXHR3-63" style="edgeStyle=orthogonalEdgeStyle;shape=connector;curved=0;rounded=1;orthogonalLoop=1;jettySize=auto;html=1;exitX=0.5;exitY=1;exitDx=0;exitDy=0;entryX=1;entryY=0.5;entryDx=0;entryDy=0;labelBackgroundColor=default;strokeColor=#666666;strokeWidth=3;align=center;verticalAlign=middle;fontFamily=Helvetica;fontSize=12;fontColor=#666666;endArrow=openThin;endFill=0;fillColor=#FAE5C7;" parent="1" source="24-RcjtqaWTgur0IXHR3-61" target="24-RcjtqaWTgur0IXHR3-54" edge="1">
          <mxGeometry relative="1" as="geometry" />
        </mxCell>
        <mxCell id="24-RcjtqaWTgur0IXHR3-61" value="Return &lt;br&gt;400 Bad Request&amp;nbsp;" style="rounded=1;whiteSpace=wrap;html=1;strokeColor=#666666;fontColor=#666666;fillColor=#FFFFFF;strokeWidth=3;" parent="1" vertex="1">
          <mxGeometry x="680" y="599.5" width="100.72" height="40" as="geometry" />
        </mxCell>
        <mxCell id="24-RcjtqaWTgur0IXHR3-66" style="edgeStyle=orthogonalEdgeStyle;shape=connector;curved=0;rounded=1;orthogonalLoop=1;jettySize=auto;html=1;labelBackgroundColor=default;strokeColor=#666666;strokeWidth=3;align=center;verticalAlign=middle;fontFamily=Helvetica;fontSize=12;fontColor=#666666;endArrow=openThin;endFill=0;fillColor=#FAE5C7;" parent="1" source="24-RcjtqaWTgur0IXHR3-64" target="24-RcjtqaWTgur0IXHR3-67" edge="1">
          <mxGeometry relative="1" as="geometry">
            <mxPoint x="609.6299999999999" y="730" as="targetPoint" />
          </mxGeometry>
        </mxCell>
        <mxCell id="24-RcjtqaWTgur0IXHR3-64" value="Start Container, add id to register" style="rounded=1;whiteSpace=wrap;html=1;strokeColor=#666666;fontColor=#666666;fillColor=#FFFFFF;strokeWidth=3;" parent="1" vertex="1">
          <mxGeometry x="559.27" y="663" width="100.72" height="40" as="geometry" />
        </mxCell>
        <mxCell id="24-RcjtqaWTgur0IXHR3-69" value="" style="edgeStyle=orthogonalEdgeStyle;shape=connector;curved=0;rounded=1;orthogonalLoop=1;jettySize=auto;html=1;labelBackgroundColor=default;strokeColor=#666666;strokeWidth=3;align=center;verticalAlign=middle;fontFamily=Helvetica;fontSize=12;fontColor=#666666;endArrow=openThin;endFill=0;fillColor=#FAE5C7;" parent="1" source="24-RcjtqaWTgur0IXHR3-67" target="24-RcjtqaWTgur0IXHR3-54" edge="1">
          <mxGeometry relative="1" as="geometry">
            <Array as="points">
              <mxPoint x="610" y="770" />
              <mxPoint x="610" y="770" />
            </Array>
          </mxGeometry>
        </mxCell>
        <mxCell id="24-RcjtqaWTgur0IXHR3-67" value="Return &lt;br&gt;200 OK&amp;nbsp;" style="rounded=1;whiteSpace=wrap;html=1;strokeColor=#666666;fontColor=#666666;fillColor=#FFFFFF;strokeWidth=3;" parent="1" vertex="1">
          <mxGeometry x="559.27" y="721" width="100.72" height="40" as="geometry" />
        </mxCell>
        <mxCell id="GGnWyou7yyoBPi_gtJ1--1" value="&lt;font color=&quot;#666666&quot;&gt;No&lt;/font&gt;" style="text;html=1;strokeColor=none;fillColor=none;align=center;verticalAlign=middle;whiteSpace=wrap;rounded=0;" parent="1" vertex="1">
          <mxGeometry x="412" y="734" width="60" height="30" as="geometry" />
        </mxCell>
        <mxCell id="GGnWyou7yyoBPi_gtJ1--2" value="&lt;font color=&quot;#666666&quot;&gt;Yes&lt;/font&gt;" style="text;html=1;strokeColor=none;fillColor=none;align=center;verticalAlign=middle;whiteSpace=wrap;rounded=0;" parent="1" vertex="1">
          <mxGeometry x="411.73" y="667" width="60" height="30" as="geometry" />
        </mxCell>
        <mxCell id="GGnWyou7yyoBPi_gtJ1--3" value="&lt;font color=&quot;#666666&quot;&gt;Yes&lt;/font&gt;" style="text;html=1;strokeColor=none;fillColor=none;align=center;verticalAlign=middle;whiteSpace=wrap;rounded=0;" parent="1" vertex="1">
          <mxGeometry x="559.27" y="633" width="60" height="30" as="geometry" />
        </mxCell>
        <mxCell id="GGnWyou7yyoBPi_gtJ1--5" value="&lt;font color=&quot;#666666&quot;&gt;No&lt;/font&gt;" style="text;html=1;strokeColor=none;fillColor=none;align=center;verticalAlign=middle;whiteSpace=wrap;rounded=0;" parent="1" vertex="1">
          <mxGeometry x="635.63" y="592" width="60" height="30" as="geometry" />
        </mxCell>
      </root>
    </mxGraphModel>
  </diagram>
</mxfile>
